<svg xmlns="http://www.w3.org/2000/svg" width="150" height="51" viewBox="0 0 150 51">
    <g fill="none" fill-rule="evenodd">
        <rect width="150" height="50.779" fill="#000" rx="8"/>
        <g fill="#FFF">
            <path d="M32.838 24.227c-.033-3.632 2.974-5.4 3.111-5.482-1.703-2.482-4.342-2.822-5.27-2.849-2.216-.233-4.367 1.327-5.496 1.327-1.152 0-2.89-1.304-4.765-1.266-2.411.037-4.668 1.434-5.905 3.602-2.554 4.421-.65 10.918 1.798 14.492 1.223 1.751 2.654 3.704 4.525 3.635 1.832-.074 2.516-1.167 4.726-1.167 2.19 0 2.832 1.167 4.741 1.122 1.965-.029 3.203-1.757 4.384-3.524 1.414-2.004 1.982-3.981 2.005-4.083-.045-.014-3.816-1.454-3.854-5.807M29.231 13.545c.985-1.231 1.66-2.907 1.472-4.608-1.426.063-3.208.986-4.235 2.191-.908 1.062-1.72 2.802-1.51 4.438 1.601.12 3.245-.808 4.273-2.02"/>
        </g>
        <g fill="#FFF">
            <path d="M59.363 37.435h-2.56l-1.401-4.405h-4.873l-1.336 4.405h-2.491l4.829-14.998h2.982l4.85 14.998zm-4.384-6.254l-1.268-3.915c-.134-.4-.386-1.343-.756-2.826h-.045c-.149.638-.386 1.58-.712 2.826l-1.247 3.915h4.028zM71.758 31.895c0 1.839-.5 3.293-1.5 4.36-.894.95-2.006 1.425-3.333 1.425-1.432 0-2.462-.51-3.088-1.535v5.674h-2.402V30.175c0-1.155-.03-2.34-.09-3.554h2.114l.134 1.715h.045c.801-1.293 2.017-1.939 3.649-1.939 1.276 0 2.34.504 3.193 1.513.85 1.01 1.278 2.338 1.278 3.985zm-2.448.088c0-1.053-.237-1.92-.712-2.604-.52-.71-1.218-1.068-2.092-1.068-.593 0-1.132.198-1.613.59a2.726 2.726 0 0 0-.945 1.548 3.121 3.121 0 0 0-.112.73v1.806c0 .784.241 1.448.724 1.991.482.54 1.109.813 1.88.813.904 0 1.609-.351 2.112-1.046.505-.698.758-1.618.758-2.76zM84.196 31.895c0 1.839-.5 3.293-1.499 4.36-.896.95-2.007 1.425-3.335 1.425-1.43 0-2.46-.51-3.088-1.535v5.674h-2.402V30.175c0-1.155-.03-2.34-.09-3.554h2.114l.134 1.715h.045c.8-1.293 2.016-1.939 3.65-1.939 1.274 0 2.34.504 3.193 1.513.85 1.01 1.278 2.338 1.278 3.985zm-2.449.088c0-1.053-.238-1.92-.713-2.604-.519-.71-1.215-1.068-2.09-1.068-.593 0-1.131.198-1.615.59a2.73 2.73 0 0 0-.944 1.548 3.193 3.193 0 0 0-.113.73v1.806c0 .784.243 1.448.723 1.991.482.54 1.109.813 1.882.813.906 0 1.61-.351 2.113-1.046.505-.698.757-1.618.757-2.76zM98.103 33.23c0 1.275-.445 2.313-1.333 3.114-.976.875-2.339 1.313-4.086 1.313-1.614 0-2.907-.311-3.883-.934l.555-2.003a6.695 6.695 0 0 0 3.471.936c.907 0 1.61-.206 2.114-.612.504-.41.758-.954.758-1.635 0-.61-.21-1.12-.624-1.537-.416-.413-1.104-.801-2.068-1.155-2.626-.98-3.94-2.413-3.94-4.296 0-1.23.464-2.238 1.39-3.026.926-.786 2.154-1.18 3.682-1.18 1.365 0 2.502.238 3.405.713l-.603 1.958c-.85-.46-1.809-.69-2.882-.69-.847 0-1.513.209-1.988.624-.4.37-.604.822-.604 1.359 0 .591.231 1.083.692 1.467.4.356 1.127.743 2.18 1.158 1.291.52 2.239 1.127 2.848 1.823.612.696.916 1.565.916 2.602M106.067 28.424h-2.648v5.25c0 1.336.466 2.002 1.402 2.002.43 0 .785-.036 1.067-.112l.066 1.825c-.473.177-1.096.266-1.867.266-.95 0-1.69-.291-2.227-.87-.534-.578-.801-1.549-.801-2.915v-5.45h-1.577v-1.804h1.577v-1.98l2.36-.712v2.692h2.648v1.808M117.993 31.939c0 1.662-.475 3.027-1.425 4.094-.993 1.098-2.313 1.647-3.96 1.647-1.589 0-2.852-.527-3.794-1.58-.943-1.052-1.414-2.38-1.414-3.98 0-1.677.488-3.05 1.457-4.117.972-1.067 2.281-1.602 3.928-1.602 1.588 0 2.861.528 3.827 1.58.922 1.022 1.38 2.34 1.38 3.958zm-2.49.055c0-.99-.215-1.84-.644-2.551-.504-.86-1.227-1.287-2.16-1.287-.961 0-1.701.428-2.203 1.287-.432.71-.645 1.575-.645 2.596 0 .992.213 1.844.645 2.552.52.86 1.244 1.289 2.184 1.289.918 0 1.638-.44 2.16-1.31.44-.728.662-1.583.662-2.576zM125.806 28.734a4.183 4.183 0 0 0-.757-.066c-.846 0-1.5.317-1.959.957-.4.564-.6 1.276-.6 2.136v5.674h-2.402v-7.409c0-1.245-.024-2.382-.07-3.404h2.093l.088 2.069h.066c.255-.711.654-1.285 1.201-1.713.537-.388 1.114-.58 1.737-.58a4 4 0 0 1 .6.043l.003 2.293M136.552 31.516c0 .43-.028.794-.088 1.09h-7.207c.026 1.068.376 1.886 1.045 2.45.607.503 1.394.755 2.357.755 1.067 0 2.041-.169 2.917-.512l.376 1.668c-1.023.445-2.232.669-3.625.669-1.677 0-2.994-.494-3.951-1.479-.955-.986-1.435-2.313-1.435-3.971 0-1.63.444-2.988 1.336-4.071.934-1.156 2.195-1.734 3.781-1.734 1.56 0 2.739.578 3.54 1.734.635.916.954 2.052.954 3.401zm-2.291-.623c.016-.713-.141-1.327-.467-1.847-.416-.67-1.056-1.003-1.914-1.003-.786 0-1.425.326-1.912.98-.4.519-.638 1.144-.711 1.868l5.004.002z"/>
        </g>
        <g fill="#FFF">
            <path d="M53.82 17.07h-1.258l-.689-2.165h-2.395l-.657 2.165h-1.225l2.374-7.372h1.465l2.386 7.372zm-2.154-3.074l-.623-1.925a28.714 28.714 0 0 1-.372-1.388h-.023c-.076.317-.186.776-.35 1.388l-.612 1.925h1.98zM59.755 11.755l-2.012 5.315h-1.149l-1.947-5.315h1.269l.908 2.81c.153.47.284.919.382 1.345h.033c.088-.382.218-.83.382-1.345l.897-2.81h1.237M64.04 17.07l-.088-.612h-.033c-.36.492-.885.732-1.552.732-.952 0-1.63-.667-1.63-1.564 0-1.312 1.137-1.99 3.106-1.99v-.098c0-.7-.372-1.05-1.105-1.05-.525 0-.985.131-1.388.394l-.24-.777c.492-.306 1.104-.46 1.827-.46 1.388 0 2.09.733 2.09 2.2v1.957c0 .536.022.952.076 1.269l-1.063-.001zm-.164-2.648c-1.313 0-1.97.318-1.97 1.072 0 .558.34.83.81.83.602 0 1.16-.458 1.16-1.081v-.82zM67.657 10.879a.694.694 0 0 1-.7-.711c0-.405.316-.7.722-.7.405 0 .733.295.721.7 0 .427-.305.711-.743.711zm-.568.876h1.18v5.315h-1.18v-5.315zM70.368 9.316h1.181v7.754h-1.181zM76.569 17.07l-.09-.612h-.031c-.36.492-.886.732-1.553.732-.951 0-1.63-.667-1.63-1.564 0-1.312 1.138-1.99 3.106-1.99v-.098c0-.7-.372-1.05-1.104-1.05-.525 0-.985.131-1.388.394l-.242-.778c.493-.306 1.105-.46 1.827-.46 1.389 0 2.09.733 2.09 2.199v1.958c0 .536.023.952.075 1.269h-1.06zm-.165-2.648c-1.313 0-1.969.318-1.969 1.072 0 .558.34.83.81.83.601 0 1.16-.458 1.16-1.081v-.82zM82.339 17.19c-.754 0-1.311-.318-1.673-.94h-.022l-.068.82h-1.005c.031-.426.043-.909.043-1.433V9.316h1.183v3.216h.021c.35-.59.919-.885 1.695-.885 1.28 0 2.178 1.094 2.178 2.69 0 1.65-.997 2.853-2.352 2.853zm-.24-4.616c-.68 0-1.302.59-1.302 1.411v.93c0 .732.559 1.334 1.28 1.334.885 0 1.412-.721 1.412-1.87 0-1.071-.548-1.805-1.39-1.805zM86.439 9.316h1.18v7.754h-1.18zM94.047 14.696H90.5c.024 1.006.689 1.574 1.673 1.574.526 0 1.007-.087 1.433-.25l.184.82c-.503.218-1.093.328-1.782.328-1.663 0-2.647-1.05-2.647-2.68 0-1.629 1.008-2.854 2.515-2.854 1.355 0 2.21 1.007 2.21 2.527.004.207-.006.393-.04.535zm-1.082-.842c0-.82-.417-1.4-1.172-1.4-.679 0-1.213.591-1.292 1.4h2.464zM101.205 17.19c-1.553 0-2.559-1.16-2.559-2.734 0-1.64 1.028-2.81 2.648-2.81 1.53 0 2.56 1.104 2.56 2.723 0 1.661-1.062 2.821-2.649 2.821zm.045-4.681c-.853 0-1.4.798-1.4 1.913 0 1.095.559 1.892 1.39 1.892.83 0 1.388-.853 1.388-1.914 0-1.082-.547-1.891-1.378-1.891zM110.203 17.07h-1.179v-3.052c0-.94-.361-1.411-1.073-1.411-.7 0-1.182.601-1.182 1.301v3.162h-1.179v-3.796c0-.47-.013-.974-.045-1.52h1.04l.055.82h.033c.315-.568.962-.93 1.684-.93 1.114 0 1.846.853 1.846 2.242v3.184M117.93 12.64h-1.299v2.581c0 .657.23.985.688.985.207 0 .384-.022.525-.055l.033.897c-.23.088-.538.132-.918.132-.932 0-1.486-.514-1.486-1.86v-2.68h-.774v-.885h.774v-.974l1.158-.35v1.323h1.3v.887M124.185 17.07h-1.182v-3.03c0-.951-.362-1.432-1.071-1.432-.612 0-1.18.416-1.18 1.258v3.204h-1.183V9.316h1.183v3.193h.022c.37-.58.908-.865 1.597-.865 1.126 0 1.814.875 1.814 2.264v3.162M130.22 14.696h-3.544c.023 1.006.688 1.574 1.672 1.574.528 0 1.008-.087 1.432-.25l.185.82c-.502.218-1.094.328-1.783.328-1.663 0-2.646-1.05-2.646-2.68 0-1.629 1.006-2.854 2.514-2.854 1.356 0 2.21 1.007 2.21 2.527.004.207-.007.393-.04.535zm-1.083-.842c0-.82-.414-1.4-1.17-1.4-.678 0-1.213.591-1.29 1.4h2.46z"/>
        </g>
    </g>
</svg>
