<svg xmlns="http://www.w3.org/2000/svg" xmlns:xlink="http://www.w3.org/1999/xlink" width="150" height="51" viewBox="0 0 150 51">
    <defs>
        <linearGradient id="a" x1="58.917%" x2="90.81%" y1="9.59%" y2="60.851%">
            <stop offset="0%" stop-color="#FF177B"/>
            <stop offset="100%" stop-color="#FFEC73"/>
        </linearGradient>
        <linearGradient id="c" x1="37.103%" x2="0%" y1="-44.035%" y2="101.06%">
            <stop offset="0%" stop-color="#064AA2"/>
            <stop offset="100%" stop-color="#63FFD4"/>
        </linearGradient>
        <path id="b" d="M14.116 12.898L.508 0C.19.074 0 .311 0 .71V25.39c0 .34.137.541.305.61l13.811-13.101z"/>
        <path id="e" d="M.562 12.978l7.866-4.321 3.474-1.926 5.72-3.08L13.814-.05.002 13.053c.154.05.426.022.637-.082"/>
        <linearGradient id="f" x1="78.645%" x2="2.495%" y1="50%" y2="100%">
            <stop offset="0%" stop-color="#FF4521"/>
            <stop offset="100%" stop-color="#8A33DB"/>
        </linearGradient>
        <linearGradient id="i" x1="0%" x2="64.224%" y1="-24.186%" y2="100%">
            <stop offset="0%" stop-color="#00A3B5"/>
            <stop offset="100%" stop-color="#D6FFA1"/>
        </linearGradient>
        <path id="h" d="M.724.116c-.262-.14-.522-.18-.733-.123l13.62 12.916 3.768-3.566-5.68-3.146L3.114 1.44.724.116z"/>
    </defs>
    <g fill="none" fill-rule="evenodd">
        <rect width="150" height="50.779" fill="#000" rx="8"/>
        <path fill="url(#a)" d="M12.205 6.947L1.248.877C.639.54.033.743.033 1.447v24.73c0 .528.433.756.962.464l11.21-6.212 2.177-1.205 3.503-1.94 5.46-3.025c.64-.355.579-.841.039-1.122-.541-.279-5.5-3.045-5.5-3.045l-5.679-3.146z" transform="translate(6.093 17.429)"/>
        <g transform="translate(6.093 18.179)">
            <mask id="d" fill="#fff">
                <use xlink:href="#b"/>
            </mask>
            <use fill="url(#c)" xlink:href="#b"/>
            <path d="M17.874 9.343l-5.687-3.148C12.167 6.241 1.822.496 1.219.203.606-.179 0 .026 0 .711v24.78c0 .544.433.773.914.508.575-.32 11.253-6.25 11.273-6.297l5.687-3.148c-.03.044 4.788-2.632 5.383-2.945.686-.397.624-.885.101-1.117-.558-.328-5.513-3.1-5.484-3.149" mask="url(#d)"/>
        </g>
        <g transform="translate(6.396 31.128)">
            <mask id="g" fill="#fff">
                <use xlink:href="#e"/>
            </mask>
            <path fill="url(#f)" d="M11.884-6.754c-.02.046-10.365-5.699-10.968-5.992-.613-.382-1.219-.177-1.219.508v24.78c0 .544.433.773.914.508.575-.32 11.253-6.25 11.273-6.297l5.687-3.148c-.03.044 4.788-2.632 5.383-2.945.686-.397.624-.885.101-1.117-.558-.328-5.513-3.1-5.484-3.149l-5.687-3.148z" mask="url(#g)"/>
        </g>
        <g transform="translate(6.6 18.179)">
            <mask id="j" fill="#fff">
                <use xlink:href="#h"/>
            </mask>
            <use fill="url(#i)" xlink:href="#h"/>
            <path d="M17.368 9.343l-5.687-3.148C11.661 6.241 1.316.496.713.203.1-.179-.506.026-.506.711v24.78c0 .544.433.773.914.508.575-.32 11.253-6.25 11.273-6.297l5.687-3.148c-.03.044 4.788-2.632 5.383-2.945.686-.397.624-.885.101-1.117-.557-.328-5.513-3.1-5.484-3.149" mask="url(#j)"/>
        </g>
        <g fill="#FFF">
            <path d="M102.737 35.43l-1.125 1.068c-.26.143-.518.31-.776.429-.781.356-1.575.446-2.281.446-.751 0-1.929-.049-3.13-.923-1.67-1.182-2.399-3.215-2.399-4.986 0-3.667 2.968-5.465 5.389-5.465.846 0 1.714.213 2.421.662 1.175.781 1.479 1.797 1.647 2.34l-5.527 2.247-1.81.142c.585 3.006 2.607 4.755 4.842 4.755 1.116 0 1.945-.366 2.705-.744 0 0 .153-.08.044.03zM99.359 29.4c.444-.166.675-.308.675-.64 0-.95-1.05-2.05-2.304-2.05-.929 0-2.672.741-2.672 3.314 0 .401.046.829.07 1.257l4.231-1.881z"/>
            <path d="M91.201 35.302c0 .916.163 1.059.933 1.13.401.048.801.07 1.197.117l-.867.52h-4.13c.542-.708.635-.779.635-1.25v-.526l-.01-14.028h-1.823l1.756-.852h3.351c-.726.424-.943.682-1.036 1.507L91.2 35.302"/>
            <path d="M84.793 27.156c.537.445 1.659 1.39 1.659 3.183 0 1.747-.977 2.57-1.963 3.35-.302.307-.656.64-.656 1.154 0 .522.354.805.609 1.016l.845.658c1.027.875 1.964 1.677 1.964 3.305 0 2.22-2.13 4.457-6.155 4.457-3.39 0-5.03-1.628-5.03-3.374 0-.85.42-2.052 1.804-2.876 1.45-.894 3.415-1.014 4.468-1.084-.329-.428-.704-.876-.704-1.607 0-.4.12-.638.234-.92-.255.025-.513.05-.748.05-2.481 0-3.884-1.866-3.884-3.705 0-1.085.491-2.29 1.5-3.162 1.333-1.107 2.924-1.298 4.188-1.298h4.821l-1.499.853h-1.453zm-1.646 10.446c-.194-.026-.31-.026-.543-.026-.214 0-1.488.047-2.475.384-.522.195-2.032.77-2.032 2.475 0 1.702 1.63 2.93 4.15 2.93 2.265 0 3.467-1.105 3.467-2.593 0-1.225-.778-1.871-2.567-3.17zm.662-4.544c.538-.542.585-1.292.585-1.718 0-1.692-.999-4.326-2.936-4.326-.604 0-1.258.306-1.63.78-.394.49-.512 1.125-.512 1.736 0 1.575.91 4.187 2.912 4.187.584 0 1.212-.286 1.58-.659zM70.21 37.373c-3.727 0-5.721-2.94-5.721-5.602 0-3.11 2.507-5.772 6.073-5.772 3.447 0 5.606 2.734 5.606 5.604 0 2.804-2.134 5.77-5.958 5.77zm2.915-1.923c.569-.762.707-1.714.707-2.641 0-2.098-.987-6.1-3.905-6.1-.776 0-1.558.308-2.121.809-.92.833-1.083 1.881-1.083 2.909 0 2.353 1.15 6.235 4 6.235.921 0 1.86-.45 2.402-1.212zM57.718 37.373c-3.73 0-5.72-2.94-5.72-5.602 0-3.11 2.508-5.772 6.074-5.772 3.447 0 5.604 2.734 5.604 5.604 0 2.804-2.132 5.77-5.958 5.77zm2.917-1.923c.565-.762.706-1.714.706-2.641 0-2.098-.991-6.1-3.908-6.1-.779 0-1.552.308-2.117.809-.921.833-1.084 1.881-1.084 2.909 0 2.353 1.154 6.235 4.002 6.235.919 0 1.857-.45 2.4-1.212zM50.451 36.67l-3.157.728c-1.28.203-2.428.381-3.644.381-6.09 0-8.41-4.51-8.41-8.041 0-4.312 3.288-8.31 8.918-8.31 1.191 0 2.337.177 3.381.463 1.655.468 2.428 1.045 2.912 1.383l-1.834 1.753-.773.174.551-.884c-.746-.734-2.12-2.09-4.724-2.09-3.483 0-6.11 2.665-6.11 6.556 0 4.178 3 8.108 7.811 8.108 1.414 0 2.142-.286 2.803-.553v-3.582l-3.334.18 1.767-.954h4.678l-.572.554c-.154.132-.175.177-.218.354a15.98 15.98 0 0 0-.045 1.071v2.71M109.55 35.539v5.998h-1.188V26.274h1.188v1.739c.774-1.124 2.189-2.014 3.832-2.014 2.947 0 4.932 2.24 4.932 5.788 0 3.523-1.985 5.81-4.932 5.81-1.551 0-2.94-.801-3.832-2.058zm7.545-3.661c0-2.702-1.395-4.762-3.87-4.762-1.536 0-3.006 1.218-3.645 2.281v4.937c.639 1.065 2.109 2.328 3.645 2.328 2.475 0 3.87-2.078 3.87-4.784zM119.94 22.038h1.218v15.335h-1.219zM134.407 40.48c.254.115.688.184.963.184.727 0 1.233-.298 1.688-1.35l.867-1.97-4.682-11.142h1.326l4.016 9.656 3.977-9.656h1.345l-5.71 13.481c-.593 1.389-1.525 2.057-2.806 2.057-.384 0-.891-.068-1.188-.16l.204-1.1M131.053 37.358c-.08-.385-.14-.725-.184-1.008a6.778 6.778 0 0 1-.057-.866c-.41.602-.99 1.104-1.732 1.5-.742.397-1.447.592-2.414.592-1.165 0-2.069-.287-2.714-.87-.643-.581-.966-1.37-.966-2.366s.468-1.805 1.402-2.423c.934-.62 2.142-.93 3.636-.93h2.788v-1.38c0-.795-.27-1.42-.81-1.874-.543-.454-1.303-.683-2.289-.683-.901 0-1.632.21-2.189.618-.552.417-.83.933-.83 1.556h-1.223l-.025-.06c-.044-.839.339-1.575 1.153-2.211.811-.635 1.873-.954 3.18-.954 1.304 0 2.358.314 3.153.941.794.621 1.193 1.519 1.193 2.692v5.481c0 .394.019.774.068 1.145.05.37.13.741.238 1.1h-1.378zm-4.244-.797c1.015 0 1.744-.229 2.489-.681.74-.45 1.244-1.036 1.508-1.745V31.99h-2.799c-1.069 0-1.954.238-2.65.719-.698.48-1.051 1.06-1.051 1.735 0 .637.224 1.146.669 1.532.446.39 1.056.584 1.834.584z"/>
        </g>
        <g fill="#FFF">
            <path d="M34.838 11.71c0-2.187 1.747-3.594 3.92-3.594 1.455 0 2.407.646 3 1.438l-1.063.573a2.467 2.467 0 0 0-1.937-.927c-1.478 0-2.576 1.042-2.576 2.51 0 1.448 1.098 2.511 2.576 2.511.761 0 1.433-.323 1.769-.625v-1.073h-2.24V11.45h3.539v2.594c-.728.76-1.78 1.271-3.068 1.271-2.173 0-3.92-1.427-3.92-3.604M43.52 15.21V8.221h5.187v1.08h-3.859v1.8h3.78v1.08h-3.78v1.948h3.86v1.08H43.52M52.235 15.21V9.301h-2.257v-1.08H55.8v1.08h-2.258v5.907h-1.308M60.46 8.222h1.27v6.987h-1.27zM65.364 15.21V9.301h-2.258v-1.08h5.823v1.08h-2.257v5.907h-1.308M73.27 11.716c0-2.077 1.597-3.6 3.864-3.6 2.254 0 3.864 1.523 3.864 3.6 0 2.076-1.61 3.6-3.864 3.6-2.267 0-3.865-1.524-3.865-3.6zm6.352-.053c0-1.425-.98-2.488-2.488-2.488-1.52 0-2.488 1.063-2.488 2.488 0 1.414.968 2.488 2.488 2.488 1.509 0 2.488-1.074 2.488-2.488zM87.676 15.21l-3.89-4.997v4.996H82.48V8.222h1.341l3.81 4.84v-4.84h1.307v6.987h-1.262"/>
        </g>
    </g>
</svg>
